 <svg version="1.0" xmlns="http://www.w3.org/2000/svg" width="700.000000pt" height="1131.000000pt" viewBox="0 0 700.000000 1131.000000" preserveAspectRatio="xMidYMid meet">
<metadata>
Created by potrace 1.12, written by Peter Selinger 2001-2015
</metadata>
<g transform="translate(0.000000,1131.000000) scale(0.100000,-0.100000)" fill="#000000" stroke="none">
<path d="M465 10810 c-56 -8 -104 -38 -140 -89 l-30 -43 -3 -2497 -2 -2497 23
-45 c16 -30 38 -52 67 -68 l44 -25 2321 3 c2021 2 2328 4 2380 17 33 8 110 42
170 76 100 55 169 95 440 253 50 29 140 80 200 115 61 35 180 104 265 155 85
51 204 121 265 157 63 38 122 80 140 102 l30 38 3 1346 c1 741 5 1678 9 2084
5 585 3 746 -7 782 -15 55 -71 110 -127 126 -40 11 -5966 21 -6048 10z m2026
-4558 c14 -12 20 -25 16 -35 -5 -13 -12 -14 -40 -6 -70 19 -102 -14 -95 -97 3
-34 6 -39 31 -42 15 -2 32 -12 37 -23 12 -21 10 -22 -42 -33 -28 -6 -28 -7
-28 -84 0 -50 -5 -85 -13 -97 -25 -33 -37 -8 -37 81 0 73 -3 85 -20 96 -11 7
-20 20 -20 28 0 9 9 23 20 33 15 13 20 29 20 68 0 61 11 84 53 109 40 25 88
25 118 2z m651 -107 c8 -19 8 -31 0 -50 -21 -47 -92 -23 -92 30 0 47 72 62 92
20z m-587 -27 c5 -36 4 -105 -4 -281 -1 -13 -7 -17 -23 -15 -23 3 -23 6 -26
158 -1 85 0 160 2 167 3 7 14 13 25 13 16 0 21 -9 26 -42z m-1698 -60 c10 -15
17 -200 8 -229 -8 -23 -57 -26 -74 -5 -8 9 -12 45 -10 98 1 46 -1 90 -5 99
-15 35 58 67 81 37z m1055 -5 c12 -11 18 -30 18 -60 0 -23 3 -43 6 -43 3 0 17
9 31 20 29 22 110 28 145 9 28 -15 50 -72 39 -102 -28 -74 -151 -92 -198 -28
-10 14 -13 13 -30 -8 -27 -33 -139 -40 -176 -10 -31 24 -38 24 -60 -1 -34 -41
-61 -23 -73 50 -12 74 -35 75 -49 1 -8 -40 -16 -57 -33 -64 -37 -17 -52 6 -52
78 0 95 0 95 92 95 71 0 81 -3 104 -25 31 -31 35 -31 64 -1 14 16 36 26 59 28
30 2 37 7 39 28 3 25 26 50 46 50 5 0 18 -7 28 -17z m-1295 -48 c18 -27 35
-54 37 -60 7 -20 16 3 17 46 2 52 13 69 44 69 36 0 43 -19 44 -113 1 -102 -8
-127 -48 -127 -29 0 -56 23 -87 78 -10 17 -22 32 -26 32 -8 0 -16 -28 -20 -75
-3 -27 -6 -30 -38 -30 l-35 0 -3 104 c-1 58 0 111 3 118 3 10 17 13 42 11 33
-3 42 -9 70 -53z m618 18 c14 -15 25 -31 25 -35 0 -4 27 -5 59 -2 108 12 148
-17 135 -96 -10 -61 -33 -80 -95 -80 -46 0 -55 4 -84 34 l-32 35 -10 -32 c-8
-28 -13 -32 -43 -32 -35 0 -35 0 -38 50 -3 65 -10 95 -22 95 -6 0 -10 -28 -10
-63 0 -65 -11 -87 -41 -87 -30 0 -49 29 -49 75 0 24 -5 47 -12 51 -18 11 -38
-26 -38 -72 0 -34 -4 -44 -20 -49 -25 -8 -60 11 -61 33 -4 43 4 118 13 129 11
13 140 15 175 2 13 -5 23 -5 23 0 0 18 59 71 79 71 11 0 32 -12 46 -27z m1503
13 c45 -24 62 -52 62 -104 0 -114 -134 -159 -204 -68 -40 53 -36 97 14 146 45
44 80 51 128 26z m256 -2 c4 -9 0 -26 -9 -38 -8 -12 -22 -31 -31 -43 -15 -21
-14 -25 17 -67 27 -39 30 -48 19 -61 -12 -14 -18 -12 -52 22 l-38 37 -34 -33
c-22 -21 -41 -31 -50 -28 -22 9 -20 18 15 66 29 41 30 44 14 67 -9 14 -23 28
-31 31 -8 3 -14 16 -14 29 0 36 39 32 72 -8 l27 -33 34 38 c38 41 52 45 61 21z"></path>
<path d="M2032 5948 c-18 -18 -15 -87 4 -95 9 -3 20 0 25 8 23 36 -3 113 -29
87z"></path>
<path d="M1807 5934 c-11 -11 -8 -62 4 -70 15 -9 30 16 27 45 -3 25 -19 37
-31 25z"></path>
<path d="M1240 5933 c0 -22 2 -25 10 -13 13 20 13 40 0 40 -5 0 -10 -12 -10
-27z"></path>
<path d="M1344 5875 c-9 -23 14 -45 26 -25 5 8 8 19 7 24 -6 17 -27 18 -33 1z"></path>
<path d="M2657 5984 c-13 -13 5 -24 39 -24 24 0 34 4 32 13 -5 13 -60 22 -71
11z"></path>
<path d="M2645 5899 c-8 -12 23 -38 46 -39 19 0 52 34 42 43 -10 11 -81 8 -88
-4z"></path>
<path d="M1690 4569 c-110 -12 -152 -25 -287 -90 -92 -44 -145 -78 -213 -135
-50 -42 -98 -86 -106 -98 -8 -11 -35 -48 -60 -81 -190 -257 -237 -627 -121
-945 31 -83 104 -206 135 -224 15 -9 0 28 -33 84 -21 35 -72 139 -94 195 -55
132 -54 479 1 615 20 49 40 95 49 110 4 8 23 43 41 78 32 61 46 79 138 179 50
54 194 160 255 188 67 31 138 57 170 63 17 3 39 11 50 18 11 7 77 18 146 24
130 13 168 9 300 -31 20 -6 44 -9 55 -7 38 9 -73 49 -164 58 -100 11 -157 11
-262 -1z"></path>
<path d="M5543 4569 c-34 -4 -83 -18 -110 -31 -76 -38 -276 -150 -293 -164 -9
-7 -49 -31 -90 -52 -41 -22 -117 -65 -168 -96 -51 -31 -95 -56 -98 -56 -2 0
-56 -31 -120 -70 -63 -38 -118 -70 -121 -70 -24 0 -277 -164 -318 -206 -82
-82 -135 -214 -135 -331 0 -88 42 -205 89 -247 27 -25 27 -20 -9 57 -17 36
-30 75 -30 87 0 11 -5 41 -11 65 -9 34 -7 59 5 120 30 147 110 250 252 329 84
47 121 68 339 197 50 29 124 71 165 93 41 21 93 51 115 66 22 15 65 40 95 56
30 15 105 58 165 94 118 69 224 120 292 140 40 12 121 10 156 -5 10 -4 17 -3
17 3 0 10 -29 18 -100 26 -14 1 -53 -1 -87 -5z"></path>
<path d="M1850 4380 c0 -28 4 -40 14 -40 18 0 30 33 21 60 -12 37 -35 23 -35
-20z"></path>
<path d="M6054 4097 c-2 -105 -4 -116 -32 -169 -53 -97 -106 -153 -202 -213
-64 -41 -137 -82 -155 -89 -5 -2 -7 -6 -4 -10 3 -3 39 12 80 34 41 22 83 44
94 49 11 5 54 38 95 73 57 49 81 77 99 119 13 30 28 64 34 77 13 28 14 219 1
231 -5 6 -10 -32 -10 -102z"></path>
<path d="M1080 4090 c0 -5 5 -10 10 -10 6 0 10 5 10 10 0 6 -4 10 -10 10 -5 0
-10 -4 -10 -10z"></path>
<path d="M2701 3994 c0 -11 3 -14 6 -6 3 7 2 16 -1 19 -3 4 -6 -2 -5 -13z"></path>
<path d="M2720 3951 c0 -11 5 -23 10 -26 6 -3 10 3 10 14 0 11 -4 23 -10 26
-5 3 -10 -3 -10 -14z"></path>
<path d="M4378 3809 c-98 -51 -160 -156 -165 -279 -3 -63 -1 -72 9 -56 7 10
21 26 32 35 10 9 39 33 64 55 25 21 54 52 64 70 30 52 58 117 54 125 -3 4 1
19 9 34 22 43 -5 49 -67 16z"></path>
<path d="M2782 3755 c0 -16 2 -22 5 -12 2 9 2 23 0 30 -3 6 -5 -1 -5 -18z"></path>
<path d="M5581 3580 c-30 -17 -62 -36 -70 -44 -9 -7 -65 -39 -126 -70 -60 -32
-112 -61 -115 -66 -3 -5 -50 -33 -105 -62 -115 -62 -174 -100 -175 -110 0 -12
69 22 135 66 33 22 90 55 128 73 37 18 93 50 125 71 31 20 91 55 133 77 75 40
153 95 134 95 -5 0 -34 -14 -64 -30z"></path>
<path d="M1031 3571 c-19 -3 -36 -11 -38 -17 -5 -15 57 -51 94 -56 23 -2 29 1
31 20 4 25 -23 63 -42 61 -6 -1 -26 -4 -45 -8z"></path>
<path d="M2782 3400 c0 -19 2 -27 5 -17 2 9 2 25 0 35 -3 9 -5 1 -5 -18z"></path>
<path d="M2758 3314 c-5 -4 -8 -20 -8 -35 0 -15 -4 -30 -9 -33 -5 -4 -19 -27
-31 -54 -12 -26 -28 -59 -36 -74 -16 -30 -17 -38 -6 -38 7 0 11 6 48 82 40 81
56 126 52 143 -1 9 -6 13 -10 9z"></path>
<path d="M4930 3203 c-43 -20 -130 -73 -148 -90 -7 -7 -20 -13 -28 -13 -8 0
-14 -5 -14 -11 0 -5 3 -9 8 -7 4 2 34 17 67 33 33 16 76 41 96 57 20 15 42 28
48 28 6 0 11 5 11 10 0 12 2 13 -40 -7z"></path>
<path d="M2618 3022 c-56 -79 -141 -170 -182 -197 -15 -10 -25 -20 -22 -22 8
-8 126 88 126 102 0 3 13 18 28 33 40 38 85 99 80 111 -1 5 -15 -7 -30 -27z"></path>
<path d="M2323 2752 c-18 -9 -33 -20 -33 -24 0 -15 25 -7 55 17 34 28 25 31
-22 7z"></path>
<path d="M2008 2618 c9 -9 15 -9 24 0 9 9 7 12 -12 12 -19 0 -21 -3 -12 -12z"></path>
<path d="M1760 2609 c57 -10 157 -9 190 1 15 5 -26 8 -105 8 -97 0 -118 -3
-85 -9z"></path>
<path d="M6589 1342 c-47 -26 -135 -76 -195 -110 -239 -139 -446 -255 -559
-313 -44 -23 -93 -51 -110 -64 -16 -12 -57 -36 -90 -54 -76 -40 -184 -100
-500 -278 -38 -22 -108 -61 -155 -87 -142 -79 -145 -94 -13 -76 104 14 255 72
413 160 58 32 157 85 220 117 63 33 176 93 250 135 74 41 187 101 250 133 63
32 158 83 210 115 52 31 133 79 180 106 99 57 164 113 191 166 22 42 26 98 7
97 -7 0 -52 -22 -99 -47z"></path>
</g>
</svg>